<?xml version="1.0"?>
<svg xmlns="http://www.w3.org/2000/svg" xmlns:xlink="http://www.w3.org/1999/xlink" xmlns:svgjs="http://svgjs.com/svgjs" version="1.1" width="512" height="512" x="0" y="0" viewBox="0 0 512 512" style="enable-background:new 0 0 512 512" xml:space="preserve" class=""><g><g xmlns="http://www.w3.org/2000/svg"><path d="m512 169c0-33.41 0-56.783 0-59 0-24.813-20.187-45-45-45h-6v55c0 8.284-6.716 15-15 15s-15-6.716-15-15c0-16.839 0-63.232 0-80 0-8.284-6.716-15-15-15s-15 6.716-15 15v25h-100v55c0 8.284-6.716 15-15 15s-15-6.716-15-15c0-16.839 0-63.232 0-80 0-8.284-6.716-15-15-15s-15 6.716-15 15v25h-100v55c0 8.284-6.716 15-15 15s-15-6.716-15-15c0-16.839 0-63.232 0-80 0-8.284-6.716-15-15-15s-15 6.716-15 15v25h-36c-24.813 0-45 20.187-45 45v59z" fill="#24da4b" data-original="#000000" style="" class=""/><path d="m0 199v243c0 24.813 20.187 45 45 45h422c24.813 0 45-20.187 45-45 0-6.425 0-146.812 0-243-9.335 0-506.836 0-512 0zm144 208h-32c-8.284 0-15-6.716-15-15s6.716-15 15-15h32c8.284 0 15 6.716 15 15s-6.716 15-15 15zm0-64h-32c-8.284 0-15-6.716-15-15s6.716-15 15-15h32c8.284 0 15 6.716 15 15s-6.716 15-15 15zm0-64h-32c-8.284 0-15-6.716-15-15s6.716-15 15-15h32c8.284 0 15 6.716 15 15s-6.716 15-15 15zm128 128h-32c-8.284 0-15-6.716-15-15s6.716-15 15-15h32c8.284 0 15 6.716 15 15s-6.716 15-15 15zm0-64h-32c-8.284 0-15-6.716-15-15s6.716-15 15-15h32c8.284 0 15 6.716 15 15s-6.716 15-15 15zm0-64h-32c-8.284 0-15-6.716-15-15s6.716-15 15-15h32c8.284 0 15 6.716 15 15s-6.716 15-15 15zm128 128h-32c-8.284 0-15-6.716-15-15s6.716-15 15-15h32c8.284 0 15 6.716 15 15s-6.716 15-15 15zm0-64h-32c-8.284 0-15-6.716-15-15s6.716-15 15-15h32c8.284 0 15 6.716 15 15s-6.716 15-15 15zm0-64h-32c-8.284 0-15-6.716-15-15s6.716-15 15-15h32c8.284 0 15 6.716 15 15s-6.716 15-15 15z" fill="#24da4b" data-original="#000000" style="" class=""/></g></g></svg>
