<?xml version="1.0"?>
<svg xmlns="http://www.w3.org/2000/svg" xmlns:xlink="http://www.w3.org/1999/xlink" xmlns:svgjs="http://svgjs.com/svgjs" version="1.1" width="512" height="512" x="0" y="0" viewBox="0 0 512 512" style="enable-background:new 0 0 512 512" xml:space="preserve"><g><path xmlns="http://www.w3.org/2000/svg" d="m467 0h-422c-24.8125 0-45 20.1875-45 45v270c0 24.8125 20.1875 45 45 45h422c24.8125 0 45-20.1875 45-45v-270c0-24.8125-20.1875-45-45-45zm15 315c0 8.269531-6.730469 15-15 15h-422c-8.269531 0-15-6.730469-15-15v-270c0-8.269531 6.730469-15 15-15h422c8.269531 0 15 6.730469 15 15zm0 0" fill="#7ed957" data-original="#000000" style=""/><path xmlns="http://www.w3.org/2000/svg" d="m186.601562 175.917969c8.335938-9.644531 13.398438-22.199219 13.398438-35.917969 0-30.328125-24.671875-55-55-55s-55 24.671875-55 55c0 13.71875 5.0625 26.273438 13.398438 35.917969-25.875 14.585937-43.398438 42.320312-43.398438 74.082031v10c0 8.285156 6.714844 15 15 15h140c8.285156 0 15-6.714844 15-15v-10c0-31.761719-17.523438-59.496094-43.398438-74.082031zm-66.601562-35.917969c0-13.785156 11.214844-25 25-25s25 11.214844 25 25-11.214844 25-25 25-25-11.214844-25-25zm-29.773438 105c2.53125-27.992188 26.128907-50 54.773438-50s52.242188 22.007812 54.773438 50zm0 0" fill="#7ed957" data-original="#000000" style=""/><path xmlns="http://www.w3.org/2000/svg" d="m437 225h-160c-8.285156 0-15 6.714844-15 15s6.714844 15 15 15h160c8.285156 0 15-6.714844 15-15s-6.714844-15-15-15zm0 0" fill="#7ed957" data-original="#000000" style=""/><path xmlns="http://www.w3.org/2000/svg" d="m437 165h-160c-8.285156 0-15 6.714844-15 15s6.714844 15 15 15h160c8.285156 0 15-6.714844 15-15s-6.714844-15-15-15zm0 0" fill="#7ed957" data-original="#000000" style=""/><path xmlns="http://www.w3.org/2000/svg" d="m277 135h60c8.285156 0 15-6.714844 15-15s-6.714844-15-15-15h-60c-8.285156 0-15 6.714844-15 15s6.714844 15 15 15zm0 0" fill="#7ed957" data-original="#000000" style=""/></g></svg>
