<?xml version="1.0"?>
<svg xmlns="http://www.w3.org/2000/svg" xmlns:xlink="http://www.w3.org/1999/xlink" xmlns:svgjs="http://svgjs.com/svgjs" version="1.1" width="512" height="512" x="0" y="0" viewBox="0 0 512 512" style="enable-background:new 0 0 512 512" xml:space="preserve"><g><path xmlns="http://www.w3.org/2000/svg" d="m498.757812 342.125h-59.757812c-.410156-.960938-.773438-1.894531-1.105469-2.800781 14.527344-3.433594 25.363281-16.496094 25.363281-32.054688 0-16.769531-12.589843-30.652343-28.824218-32.679687-6.585938-95.082032-149.167969-95.492188-155.789063-.011719-16.234375 2.027344-28.824219 15.921875-28.824219 32.691406 0 15.570313 10.863282 28.652344 25.410157 32.066407-.332031.902343-.691407 1.828124-1.09375 2.789062h-41.050781c1.835937-3.660156 2.875-7.789062 2.875-12.160156 0-45.203125-31.019532-86.703125-80.914063-96.179688 16.578125-10.875 32.804687-27.078125 38.304687-46.394531 30.34375-9.003906 31.625-51.601563 1.9375-62.5v-6.253906c10.984376 0 19.042969-9.878907 19.042969-21.101563v-24.871094c0-4.15625-3.363281-7.527343-7.527343-7.527343-4.15625 0-7.53125 3.371093-7.53125 7.527343v24.871094c0 2.855469-1.589844 6.042969-3.984376 6.042969-11.351562 0-68.226562 3.0625-101.222656-30.472656-4.496094-4.582031-12.40625-1.742188-12.871094 4.730469-.589843 7.941406-7.890624 14.164062-16.625 14.164062-5.796874 0-3.375 0-12.398437 0-5.917969 0-10.683594-4.335938-10.683594-9.585938v-26.988281c0-8.429687 7.53125-15.199219 16.667969-15.199219 6.738281 0 8.410156-.175781 11.472656.710938 3.964844 1.15625 8.1875-1.085938 9.359375-5.1875 3.488281-12.402344 15.585938-20.652344 28.921875-20.652344h61.464844c16.40625 0 29.820312 12.328125 29.898438 27.488282.019531 4.039062 3.273437 7.488281 7.570312 7.488281 4.167969-.019531 7.511719-3.414063 7.488281-7.570313-.128906-23.421875-20.289062-42.4648435-44.957031-42.4648435h-61.464844c-17.890625 0-33.871094 10.0898435-41.019531 25.2070315-1.597656-.101563-1.75-.078125-8.734375-.078125-17.492188 0-31.726562 13.574219-31.726562 30.257812v26.988281c0 11.375 8.082031 20.972657 19.042968 23.804688v18.664062c-29.699218 10.902344-28.402344 53.488282 1.9375 62.507813 5.5 19.3125 21.722656 35.515625 38.304688 46.394531 0 0-24.328125 3.035156-46.292969 21.625-22 18.601563-34.617187 45.78125-34.617187 74.554688 0 4.75 1.226562 9.246094 3.390624 13.164062-4.804687 1.988282-8.195312 6.71875-8.195312 12.238282v39.617187c0 7.300781 5.945312 13.246094 13.242188 13.246094h4.5v89.292969c0 6.222656 5.066406 11.292968 11.292968 11.292968h22.589844c4.15625 0 7.53125-3.371094 7.53125-7.527344s-3.375-7.53125-7.53125-7.53125h-18.824219v-85.527343h241.40625c2.390625 1.855469 4.820313 3.621093 7.308594 5.308593-14.980469 18.132813-23.421875 42.398438-23.421875 67.871094 0 4.355469.902344 8.570313 2.597656 12.347656h-178.949218c-4.15625 0-7.527344 3.375-7.527344 7.53125s3.371094 7.527344 7.527344 7.527344h401.59375c6.226562 0 11.296874-5.070312 11.296874-11.292968v-89.292969h4.125c7.308594 0 13.242188-5.945313 13.242188-13.246094v-39.617187c0-7.308594-5.933594-13.242188-13.242188-13.242188zm-303.46875-200.136719c8.761719 7.183594 8.746094 20.503907 0 27.671875zm-149.816406 27.660157c-8.761718-7.179688-8.742187-20.492188 0-27.660157zm389.199219 120.28125c18.046875 4.527343 17.875 30.21875-.007813 34.675781zm-156.269531-.011719.011718 34.6875c-18.019531-4.515625-17.929687-30.1875-.011718-34.6875zm-89.910156-1.789063c7.433593-3.207031 7.46875-10.363281 6.363281-18.320312 15.675781 14.433594 26.042969 36.070312 26.042969 60.15625 0 6.542968-5.171876 11.875-11.636719 12.160156h-81.347657v-51.777344l33.960938-14.4375 14.527344 10.492188c3.34375 2.792968 8.03125 3.472656 12.089844 1.726562zm-68.480469-14.136718-14.578125-16.402344c0-4.800782 0-8.675782 0-13.476563 11.585937 4.449219 18.222656 4.472657 29.886718.011719v13.363281zm39.171875-23.914063c.679687 0 6.292968 1.882813 8.222656 2.601563 6.789062 3.863281 10.855469 9.636718 12.289062 17.519531-16.242187-11.707031-14.058593-12.25-30.941406-5.070313 2.105469-2.648437 1.625-4.089844 1.625-16.835937 3.109375.496093 5.753906.964843 8.804688 1.785156zm-95.578125-62.035156c-4.246094-9.957031-3.070313-8.832031-3.070313-80.980469h4.035156c11.765626 0 22.1875-6.226562 27.660157-15.472656 21.707031 16.996094 52.988281 26.707031 88 27.039062 0 59.042969 1.164062 59.476563-3.074219 69.414063-10.171875 23.863281-42.839844 43.070312-55.53125 44.324219-15.386719 0-48.28125-21.476563-58.019531-44.324219zm26.765625 60.25c0 12.738281-.5 14.257812 1.738281 16.957031l-8.28125-3.605469c-4.890625-2.1875-9.820313-.808593-12.171875.914063l-10.582031 7.640625c2.753906-15.183594 13.476562-19.574219 29.296875-21.90625zm-44.464844 21.503906c-1.101562 7.925781-1.082031 15.113281 6.355469 18.324219 4.054687 1.753906 8.746093 1.074218 12.097656-1.71875l14.515625-10.480469c41.476562 18.058594 31.132812 13.503906 33.976562 14.929687v51.273438h-81.34375c-6.398437-.285156-11.644531-5.511719-11.644531-12.160156 0-22.878906 9.4375-44.578125 26.042969-60.167969zm210.46875 97.339844c-6.648438 5.984375-7.363281 16.332031-1.382812 23.082031.816406.917969 1.277343 1.4375 2.691406 2.949219-13.65625 0-231.347656 0-242.625 0v-35.980469h250.453125c-2.527344 3.351562-5.539063 6.714844-9.136719 9.949219zm9.890625 13.101562c-1.054687-1.1875.5-2.160156 1.859375-3.445312 19.292969-18.261719 25.347656-42.433594 25.347656-49.625 0-49.164063-.085937-47.160157.160156-50.992188 5.058594-78.933593 125.980469-77.636719 125.980469 5.238281 0 25.523438-.007812 28.851563-.007812 45.753907 0 4.132812 3.980469 29.394531 25.359375 49.625 1.339844 1.269531 2.90625 2.253906 1.847656 3.445312-51.21875 57.757813-133.160156 53.457031-180.546875 0zm164.601563 113.359375h-148.660157c-4.839843 0-9.054687-5.449218-9.054687-12.1875 0-22.832031 7.761718-44.417968 21.445312-60.019531 19.238282 10.160156 40.632813 15.632813 62.4375 15.632813 21.757813 0 42.699219-5.332032 61.625-15.433594 12.875 14.722656 21.265625 35.808594 21.265625 59.820312 0 6.605469-4.148437 12.1875-9.058593 12.1875zm48.703124.160156h-27.214843c1.675781-3.710937 2.628906-7.90625 2.628906-12.347656 0-25.453125-8.261719-49.46875-23.3125-67.738281 2.507813-1.730469 4.980469-3.535156 7.390625-5.441406h40.507812zm17.371094-100.589843c-13.863281 0-27.710937 0-41.546875 0 .914063-.957031 2.046875-2.210938 2.691407-2.949219 5.910156-6.667969 5.347656-17.023438-1.386719-23.082031-3.582031-3.214844-6.585938-6.578125-9.105469-9.949219h49.347656zm0 0" fill="#7ed957" data-original="#000000" style=""/><path xmlns="http://www.w3.org/2000/svg" d="m488.253906 0h-238.945312c-13.09375 0-23.746094 10.652344-23.746094 23.746094v122.484375c0 13.089843 10.652344 23.742187 23.746094 23.742187h10.28125l-21.867188 33.773438c-9.125 14.085937 8.339844 30.183594 21.617188 20.082031l71.121094-53.855469h157.792968c13.09375 0 23.746094-10.652344 23.746094-23.742187v-122.484375c0-13.09375-10.652344-23.746094-23.746094-23.746094zm-237.640625 211.546875 26.917969-41.574219h27.980469zm246.328125-65.316406c0 4.789062-3.898437 8.683593-8.6875 8.683593-44.550781 0-194.015625 0-238.945312 0-4.789063 0-8.683594-3.894531-8.683594-8.683593v-122.484375c0-4.789063 3.894531-8.6875 8.683594-8.6875h238.945312c4.789063 0 8.6875 3.898437 8.6875 8.6875zm0 0" fill="#7ed957" data-original="#000000" style=""/><path xmlns="http://www.w3.org/2000/svg" d="m468.617188 38.453125h-199.667969c-4.160157 0-7.527344 3.371094-7.527344 7.527344 0 4.160156 3.367187 7.53125 7.527344 7.53125h199.667969c4.160156 0 7.53125-3.371094 7.53125-7.53125 0-4.15625-3.371094-7.527344-7.53125-7.527344zm0 0" fill="#7ed957" data-original="#000000" style=""/><path xmlns="http://www.w3.org/2000/svg" d="m468.617188 77.457031h-28.988282c-4.160156 0-7.53125 3.371094-7.53125 7.527344 0 4.160156 3.371094 7.53125 7.53125 7.53125h28.988282c4.160156 0 7.53125-3.371094 7.53125-7.53125 0-4.15625-3.371094-7.527344-7.53125-7.527344zm0 0" fill="#7ed957" data-original="#000000" style=""/><path xmlns="http://www.w3.org/2000/svg" d="m268.949219 92.515625h140.558593c4.160157 0 7.53125-3.371094 7.53125-7.53125 0-4.15625-3.371093-7.527344-7.53125-7.527344h-140.558593c-4.160157 0-7.527344 3.371094-7.527344 7.527344 0 4.160156 3.367187 7.53125 7.527344 7.53125zm0 0" fill="#7ed957" data-original="#000000" style=""/><path xmlns="http://www.w3.org/2000/svg" d="m468.617188 116.460938h-199.667969c-4.160157 0-7.527344 3.371093-7.527344 7.53125 0 4.15625 3.367187 7.527343 7.527344 7.527343h199.667969c4.160156 0 7.53125-3.371093 7.53125-7.527343 0-4.160157-3.371094-7.53125-7.53125-7.53125zm0 0" fill="#7ed957" data-original="#000000" style=""/><path xmlns="http://www.w3.org/2000/svg" d="m133.820312 169.386719c-4.160156 0-7.53125 3.371093-7.53125 7.53125 0 3.257812-2.648437 5.90625-5.90625 5.90625-3.257812 0-5.910156-2.648438-5.910156-5.90625 0-4.160157-3.371094-7.53125-7.527344-7.53125-14.089843 0-7.570312 28.496093 13.4375 28.496093 21.007813 0 27.523438-28.496093 13.4375-28.496093zm0 0" fill="#7ed957" data-original="#000000" style=""/><path xmlns="http://www.w3.org/2000/svg" d="m162.894531 149.628906c0 4.410156-3.574219 7.984375-7.980469 7.984375-4.410156 0-7.984374-3.574219-7.984374-7.984375 0-4.40625 3.574218-7.980468 7.984374-7.980468 4.40625 0 7.980469 3.574218 7.980469 7.980468zm0 0" fill="#7ed957" data-original="#000000" style=""/><path xmlns="http://www.w3.org/2000/svg" d="m93.835938 149.628906c0 4.410156-3.574219 7.984375-7.984376 7.984375-4.40625 0-7.980468-3.574219-7.980468-7.984375 0-4.40625 3.574218-7.980468 7.980468-7.980468 4.410157 0 7.984376 3.574218 7.984376 7.980468zm0 0" fill="#7ed957" data-original="#000000" style=""/><path xmlns="http://www.w3.org/2000/svg" d="m145.691406 138.84375c4.550782-.949219 15.59375-1.863281 20.714844 1.351562 1.246094.785157 2.632812 1.15625 4 1.15625 7.515625 0 10.40625-9.886718 4.015625-13.902343-11.582031-7.285157-29.765625-3.773438-31.804687-3.347657-4.070313.847657-6.683594 4.835938-5.832032 8.90625.847656 4.070313 4.839844 6.683594 8.90625 5.835938zm0 0" fill="#7ed957" data-original="#000000" style=""/><path xmlns="http://www.w3.org/2000/svg" d="m103.980469 133.007812c.847656-4.070312-1.761719-8.058593-5.835938-8.90625-2.035156-.425781-20.21875-3.933593-31.800781 3.347657-3.523438 2.210937-4.582031 6.859375-2.367188 10.378906 2.210938 3.523437 6.859376 4.582031 10.382813 2.367187 4.886719-3.074218 15.304687-2.457031 20.726563-1.351562 4.070312.847656 8.046874-1.765625 8.894531-5.835938zm0 0" fill="#7ed957" data-original="#000000" style=""/><path xmlns="http://www.w3.org/2000/svg" d="m148.214844 325.097656c0 4.15625 3.371094 7.527344 7.53125 7.527344h42.902344c4.160156 0 7.527343-3.371094 7.527343-7.527344 0-4.160156-3.367187-7.53125-7.527343-7.53125h-42.902344c-4.160156 0-7.53125 3.371094-7.53125 7.53125zm0 0" fill="#7ed957" data-original="#000000" style=""/><path xmlns="http://www.w3.org/2000/svg" d="m42.117188 332.625h42.902343c4.160157 0 7.53125-3.371094 7.53125-7.527344 0-4.160156-3.371093-7.53125-7.53125-7.53125h-42.902343c-4.160157 0-7.53125 3.371094-7.53125 7.53125 0 4.15625 3.371093 7.527344 7.53125 7.527344zm0 0" fill="#7ed957" data-original="#000000" style=""/></g></svg>
