<?xml version="1.0"?>
<svg xmlns="http://www.w3.org/2000/svg" xmlns:xlink="http://www.w3.org/1999/xlink" xmlns:svgjs="http://svgjs.com/svgjs" version="1.1" width="512" height="512" x="0" y="0" viewBox="0 0 448 448.094" style="enable-background:new 0 0 512 512" xml:space="preserve" class=""><g><path xmlns="http://www.w3.org/2000/svg" d="m194.046875 177.050781c12.683594 0 22.964844-10.28125 22.964844-22.960937 0-12.683594-10.28125-22.964844-22.964844-22.964844s-22.964844 10.28125-22.964844 22.964844c.015625 12.675781 10.289063 22.949218 22.964844 22.960937zm0 0" fill="#7ed957" data-original="#000000" style="" class=""/><path xmlns="http://www.w3.org/2000/svg" d="m238.046875 250.320312c-.023437-20.246093-16.433594-36.65625-36.683594-36.679687h-14.632812c-20.25.023437-36.660157 16.433594-36.683594 36.679687v25.4375h88zm0 0" fill="#7ed957" data-original="#000000" style="" class=""/><path xmlns="http://www.w3.org/2000/svg" d="m68.804688 330.851562v-2.433593c0-3.3125 2.6875-6 6-6s6 2.6875 6 6v12.230469c0 1.058593-.28125 2.09375-.816407 3.007812 9.613281 10.035156 20.09375 19.199219 31.324219 27.382812 24.386719 17.703126 51.300781 31.632813 79.835938 41.320313 29.472656-9.644531 57.367187-23.582031 82.777343-41.359375 12.0625-8.488281 23.316407-18.066406 33.621094-28.617188-.167969-.5625-.253906-1.148437-.257813-1.734374v-12.230469c0-3.3125 2.6875-6 6-6 3.316407 0 6 2.6875 6 6v.757812c4.304688-5.285156 8.308594-10.804687 11.996094-16.535156 17.035156-26.398437 26.007813-57.1875 25.816406-88.605469v-94.125c-57.761718-25.082031-112.464843-56.679687-163.054687-94.179687-50.585937 37.5-105.292969 69.097656-163.054687 94.179687v94.125c0 32.101563 8.394531 61.9375 24.949218 88.675782 3.914063 6.300781 8.210938 12.359374 12.863282 18.140624zm91.5 9.796876c0 3.316406-2.6875 6-6 6s-6-2.683594-6-6v-12.226563c0-3.316406 2.6875-6 6-6s6 2.683594 6 6zm39.746093 0c0 3.316406-2.683593 6-6 6-3.3125 0-6-2.683594-6-6v-12.226563c0-3.316406 2.6875-6 6-6 3.316407 0 6 2.683594 6 6zm39.75 0c0 3.316406-2.6875 6-6 6-3.316406 0-6-2.683594-6-6v-12.226563c0-3.316406 2.683594-6 6-6 3.3125 0 6 2.683594 6 6zm27.746094-12.226563c0-3.316406 2.6875-6 6-6 3.316406 0 6 2.683594 6 6v12.226563c0 3.316406-2.683594 6-6 6-3.3125 0-6-2.683594-6-6zm-73.5-209.296875c19.308594 0 34.964844 15.652344 34.964844 34.964844 0 19.308594-15.65625 34.964844-34.964844 34.964844-19.3125-.003907-34.964844-15.65625-34.964844-34.964844.019531-19.304688 15.664063-34.945313 34.964844-34.964844zm-56 131.199219c.03125-26.875 21.808594-48.652344 48.683594-48.683594h14.632812c26.875.03125 48.652344 21.808594 48.683594 48.679687v31.4375c0 3.3125-2.6875 6-6 6h-100c-3.3125 0-6-2.6875-6-6zm-29.5 78.101562c0-3.316406 2.6875-6 6-6s6 2.683594 6 6v12.230469c0 3.3125-2.6875 6-6 6s-6-2.6875-6-6zm0 0" fill="#7ed957" data-original="#000000" style="" class=""/><path xmlns="http://www.w3.org/2000/svg" d="m95.570312 398.988281c42.761719 31.375 86.128907 46.246094 95.039063 49.105469 9.117187-2.820312 54.132813-17.699219 98.519531-49.152344 28.832032-20.429687 51.773438-43.761718 68.183594-69.347656 20.28125-31.414062 30.960938-68.0625 30.734375-105.453125v-112.074219c-68.75-29.789062-133.84375-67.394531-194-112.066406-60.15625 44.671875-125.25 82.273438-194 112.066406v112.074219c0 38.199219 9.992187 73.699219 29.699219 105.515625 15.847656 25.585938 37.992187 48.910156 65.824218 69.332031zm-76.578124-273.023437c0-2.398438 1.429687-4.566406 3.628906-5.515625l1.113281-.476563c59.195313-25.46875 115.15625-57.875 166.710937-96.53125 2.136719-1.601562 5.066407-1.601562 7.203126 0 51.554687 38.65625 107.519531 71.058594 166.710937 96.53125l1.113281.476563c2.203125.945312 3.628906 3.113281 3.628906 5.511719v98.070312c.203126 33.785156-9.46875 66.894531-27.824218 95.253906-14.683594 22.851563-35.109375 43.609375-60.703125 61.703125-43.335938 30.640625-86.027344 42.90625-87.824219 43.414063-1.085938.308594-2.234375.300781-3.3125-.011719-1.738281-.507813-43.027344-12.792969-84.921875-43.460937-24.738281-18.101563-44.472656-38.875-58.660156-61.726563-17.824219-28.710937-26.859375-60.734375-26.859375-95.175781zm0 0" fill="#7ed957" data-original="#000000" style="" class=""/></g></svg>
